<svg xmlns="http://www.w3.org/2000/svg" width="1024" height="1024" viewBox="0 0 1024 1024">
  <defs>
    <linearGradient id="bg" x1="0" y1="0" x2="0" y2="1">
      <stop offset="0" stop-color="#2b3644"/>
      <stop offset="1" stop-color="#171c24"/>
    </linearGradient>
    <radialGradient id="shade" cx="0.36" cy="0.32" r="0.78">
      <stop offset="0" stop-color="#ffffff" stop-opacity="0.08"/>
      <stop offset="0.55" stop-color="#ffffff" stop-opacity="0"/>
      <stop offset="1" stop-color="#000000" stop-opacity="0.30"/>
    </radialGradient>
    <clipPath id="globe"><circle cx="512" cy="512" r="336"/></clipPath>
  </defs>
  <rect x="64" y="64" width="896" height="896" rx="208" fill="url(#bg)"/>
  <g clip-path="url(#globe)">
    <rect x="176.0" y="176.0" width="56.6" height="56.6" fill="#00224e"/>
    <rect x="232.0" y="176.0" width="56.6" height="56.6" fill="#00224e"/>
    <rect x="288.0" y="176.0" width="56.6" height="56.6" fill="#00224e"/>
    <rect x="344.0" y="176.0" width="56.6" height="56.6" fill="#00224e"/>
    <rect x="400.0" y="176.0" width="56.6" height="56.6" fill="#062652"/>
    <rect x="456.0" y="176.0" width="56.6" height="56.6" fill="#112d58"/>
    <rect x="512.0" y="176.0" width="56.6" height="56.6" fill="#082752"/>
    <rect x="568.0" y="176.0" width="56.6" height="56.6" fill="#00224e"/>
    <rect x="624.0" y="176.0" width="56.6" height="56.6" fill="#00224e"/>
    <rect x="680.0" y="176.0" width="56.6" height="56.6" fill="#00224e"/>
    <rect x="736.0" y="176.0" width="56.6" height="56.6" fill="#00224e"/>
    <rect x="792.0" y="176.0" width="56.6" height="56.6" fill="#00224e"/>
    <rect x="176.0" y="232.0" width="56.6" height="56.6" fill="#072752"/>
    <rect x="232.0" y="232.0" width="56.6" height="56.6" fill="#072752"/>
    <rect x="288.0" y="232.0" width="56.6" height="56.6" fill="#052651"/>
    <rect x="344.0" y="232.0" width="56.6" height="56.6" fill="#142f59"/>
    <rect x="400.0" y="232.0" width="56.6" height="56.6" fill="#213861"/>
    <rect x="456.0" y="232.0" width="56.6" height="56.6" fill="#283c65"/>
    <rect x="512.0" y="232.0" width="56.6" height="56.6" fill="#293d65"/>
    <rect x="568.0" y="232.0" width="56.6" height="56.6" fill="#223961"/>
    <rect x="624.0" y="232.0" width="56.6" height="56.6" fill="#16305a"/>
    <rect x="680.0" y="232.0" width="56.6" height="56.6" fill="#062652"/>
    <rect x="736.0" y="232.0" width="56.6" height="56.6" fill="#062651"/>
    <rect x="792.0" y="232.0" width="56.6" height="56.6" fill="#062651"/>
    <rect x="176.0" y="288.0" width="56.6" height="56.6" fill="#3f4c6e"/>
    <rect x="232.0" y="288.0" width="56.6" height="56.6" fill="#32436a"/>
    <rect x="288.0" y="288.0" width="56.6" height="56.6" fill="#38486d"/>
    <rect x="344.0" y="288.0" width="56.6" height="56.6" fill="#47526f"/>
    <rect x="400.0" y="288.0" width="56.6" height="56.6" fill="#545d71"/>
    <rect x="456.0" y="288.0" width="56.6" height="56.6" fill="#5f6573"/>
    <rect x="512.0" y="288.0" width="56.6" height="56.6" fill="#646974"/>
    <rect x="568.0" y="288.0" width="56.6" height="56.6" fill="#646974"/>
    <rect x="624.0" y="288.0" width="56.6" height="56.6" fill="#5c6373"/>
    <rect x="680.0" y="288.0" width="56.6" height="56.6" fill="#4e5870"/>
    <rect x="736.0" y="288.0" width="56.6" height="56.6" fill="#38486d"/>
    <rect x="792.0" y="288.0" width="56.6" height="56.6" fill="#32436b"/>
    <rect x="176.0" y="344.0" width="56.6" height="56.6" fill="#8e8d85"/>
    <rect x="232.0" y="344.0" width="56.6" height="56.6" fill="#7d7c78"/>
    <rect x="288.0" y="344.0" width="56.6" height="56.6" fill="#81807b"/>
    <rect x="344.0" y="344.0" width="56.6" height="56.6" fill="#898981"/>
    <rect x="400.0" y="344.0" width="56.6" height="56.6" fill="#939288"/>
    <rect x="456.0" y="344.0" width="56.6" height="56.6" fill="#9b9a8f"/>
    <rect x="512.0" y="344.0" width="56.6" height="56.6" fill="#a1a194"/>
    <rect x="568.0" y="344.0" width="56.6" height="56.6" fill="#a4a496"/>
    <rect x="624.0" y="344.0" width="56.6" height="56.6" fill="#a3a395"/>
    <rect x="680.0" y="344.0" width="56.6" height="56.6" fill="#9d9d91"/>
    <rect x="736.0" y="344.0" width="56.6" height="56.6" fill="#919187"/>
    <rect x="792.0" y="344.0" width="56.6" height="56.6" fill="#7d7c78"/>
    <rect x="176.0" y="400.0" width="56.6" height="56.6" fill="#b8b79d"/>
    <rect x="232.0" y="400.0" width="56.6" height="56.6" fill="#aeae9e"/>
    <rect x="288.0" y="400.0" width="56.6" height="56.6" fill="#b0b09f"/>
    <rect x="344.0" y="400.0" width="56.6" height="56.6" fill="#b8b79d"/>
    <rect x="400.0" y="400.0" width="56.6" height="56.6" fill="#c2be8d"/>
    <rect x="456.0" y="400.0" width="56.6" height="56.6" fill="#cdc67e"/>
    <rect x="512.0" y="400.0" width="56.6" height="56.6" fill="#d7cd6f"/>
    <rect x="568.0" y="400.0" width="56.6" height="56.6" fill="#ded265"/>
    <rect x="624.0" y="400.0" width="56.6" height="56.6" fill="#e2d461"/>
    <rect x="680.0" y="400.0" width="56.6" height="56.6" fill="#dfd264"/>
    <rect x="736.0" y="400.0" width="56.6" height="56.6" fill="#d5cb73"/>
    <rect x="792.0" y="400.0" width="56.6" height="56.6" fill="#bfbc92"/>
    <rect x="176.0" y="456.0" width="56.6" height="56.6" fill="#e1d362"/>
    <rect x="232.0" y="456.0" width="56.6" height="56.6" fill="#d4ca74"/>
    <rect x="288.0" y="456.0" width="56.6" height="56.6" fill="#d3ca75"/>
    <rect x="344.0" y="456.0" width="56.6" height="56.6" fill="#d9ce6e"/>
    <rect x="400.0" y="456.0" width="56.6" height="56.6" fill="#e1d461"/>
    <rect x="456.0" y="456.0" width="56.6" height="56.6" fill="#ecdb52"/>
    <rect x="512.0" y="456.0" width="56.6" height="56.6" fill="#f6e343"/>
    <rect x="568.0" y="456.0" width="56.6" height="56.6" fill="#fee838"/>
    <rect x="624.0" y="456.0" width="56.6" height="56.6" fill="#fee838"/>
    <rect x="680.0" y="456.0" width="56.6" height="56.6" fill="#fee838"/>
    <rect x="736.0" y="456.0" width="56.6" height="56.6" fill="#fee838"/>
    <rect x="792.0" y="456.0" width="56.6" height="56.6" fill="#f2e049"/>
    <rect x="176.0" y="512.0" width="56.6" height="56.6" fill="#e8d957"/>
    <rect x="232.0" y="512.0" width="56.6" height="56.6" fill="#d8cd6f"/>
    <rect x="288.0" y="512.0" width="56.6" height="56.6" fill="#d3c976"/>
    <rect x="344.0" y="512.0" width="56.6" height="56.6" fill="#d4cb73"/>
    <rect x="400.0" y="512.0" width="56.6" height="56.6" fill="#dbcf6a"/>
    <rect x="456.0" y="512.0" width="56.6" height="56.6" fill="#e4d65d"/>
    <rect x="512.0" y="512.0" width="56.6" height="56.6" fill="#efdd4e"/>
    <rect x="568.0" y="512.0" width="56.6" height="56.6" fill="#f9e43f"/>
    <rect x="624.0" y="512.0" width="56.6" height="56.6" fill="#fee838"/>
    <rect x="680.0" y="512.0" width="56.6" height="56.6" fill="#fee838"/>
    <rect x="736.0" y="512.0" width="56.6" height="56.6" fill="#fee838"/>
    <rect x="792.0" y="512.0" width="56.6" height="56.6" fill="#fae53e"/>
    <rect x="176.0" y="568.0" width="56.6" height="56.6" fill="#cfc77c"/>
    <rect x="232.0" y="568.0" width="56.6" height="56.6" fill="#b9b79b"/>
    <rect x="288.0" y="568.0" width="56.6" height="56.6" fill="#b0b09f"/>
    <rect x="344.0" y="568.0" width="56.6" height="56.6" fill="#aeae9e"/>
    <rect x="400.0" y="568.0" width="56.6" height="56.6" fill="#b1b19f"/>
    <rect x="456.0" y="568.0" width="56.6" height="56.6" fill="#b7b69e"/>
    <rect x="512.0" y="568.0" width="56.6" height="56.6" fill="#c0bd90"/>
    <rect x="568.0" y="568.0" width="56.6" height="56.6" fill="#cbc580"/>
    <rect x="624.0" y="568.0" width="56.6" height="56.6" fill="#d6cc71"/>
    <rect x="680.0" y="568.0" width="56.6" height="56.6" fill="#dfd265"/>
    <rect x="736.0" y="568.0" width="56.6" height="56.6" fill="#e1d461"/>
    <rect x="792.0" y="568.0" width="56.6" height="56.6" fill="#d6cc71"/>
    <rect x="176.0" y="624.0" width="56.6" height="56.6" fill="#a4a496"/>
    <rect x="232.0" y="624.0" width="56.6" height="56.6" fill="#908f86"/>
    <rect x="288.0" y="624.0" width="56.6" height="56.6" fill="#84837d"/>
    <rect x="344.0" y="624.0" width="56.6" height="56.6" fill="#7e7d79"/>
    <rect x="400.0" y="624.0" width="56.6" height="56.6" fill="#7d7c78"/>
    <rect x="456.0" y="624.0" width="56.6" height="56.6" fill="#807f7a"/>
    <rect x="512.0" y="624.0" width="56.6" height="56.6" fill="#86857f"/>
    <rect x="568.0" y="624.0" width="56.6" height="56.6" fill="#8e8e85"/>
    <rect x="624.0" y="624.0" width="56.6" height="56.6" fill="#98978c"/>
    <rect x="680.0" y="624.0" width="56.6" height="56.6" fill="#a0a093"/>
    <rect x="736.0" y="624.0" width="56.6" height="56.6" fill="#a4a496"/>
    <rect x="792.0" y="624.0" width="56.6" height="56.6" fill="#939389"/>
    <rect x="176.0" y="680.0" width="56.6" height="56.6" fill="#656974"/>
    <rect x="232.0" y="680.0" width="56.6" height="56.6" fill="#5e6473"/>
    <rect x="288.0" y="680.0" width="56.6" height="56.6" fill="#48546f"/>
    <rect x="344.0" y="680.0" width="56.6" height="56.6" fill="#3a496d"/>
    <rect x="400.0" y="680.0" width="56.6" height="56.6" fill="#33446b"/>
    <rect x="456.0" y="680.0" width="56.6" height="56.6" fill="#33436b"/>
    <rect x="512.0" y="680.0" width="56.6" height="56.6" fill="#37476c"/>
    <rect x="568.0" y="680.0" width="56.6" height="56.6" fill="#424f6e"/>
    <rect x="624.0" y="680.0" width="56.6" height="56.6" fill="#4f5970"/>
    <rect x="680.0" y="680.0" width="56.6" height="56.6" fill="#5e6473"/>
    <rect x="736.0" y="680.0" width="56.6" height="56.6" fill="#656974"/>
    <rect x="792.0" y="680.0" width="56.6" height="56.6" fill="#575f72"/>
    <rect x="176.0" y="736.0" width="56.6" height="56.6" fill="#263b63"/>
    <rect x="232.0" y="736.0" width="56.6" height="56.6" fill="#263b63"/>
    <rect x="288.0" y="736.0" width="56.6" height="56.6" fill="#263b63"/>
    <rect x="344.0" y="736.0" width="56.6" height="56.6" fill="#16315b"/>
    <rect x="400.0" y="736.0" width="56.6" height="56.6" fill="#0a2954"/>
    <rect x="456.0" y="736.0" width="56.6" height="56.6" fill="#042450"/>
    <rect x="512.0" y="736.0" width="56.6" height="56.6" fill="#042550"/>
    <rect x="568.0" y="736.0" width="56.6" height="56.6" fill="#0b2954"/>
    <rect x="624.0" y="736.0" width="56.6" height="56.6" fill="#18325c"/>
    <rect x="680.0" y="736.0" width="56.6" height="56.6" fill="#273c64"/>
    <rect x="736.0" y="736.0" width="56.6" height="56.6" fill="#253a63"/>
    <rect x="792.0" y="736.0" width="56.6" height="56.6" fill="#253a63"/>
    <rect x="176.0" y="792.0" width="56.6" height="56.6" fill="#062651"/>
    <rect x="232.0" y="792.0" width="56.6" height="56.6" fill="#062651"/>
    <rect x="288.0" y="792.0" width="56.6" height="56.6" fill="#062651"/>
    <rect x="344.0" y="792.0" width="56.6" height="56.6" fill="#062651"/>
    <rect x="400.0" y="792.0" width="56.6" height="56.6" fill="#082753"/>
    <rect x="456.0" y="792.0" width="56.6" height="56.6" fill="#00224e"/>
    <rect x="512.0" y="792.0" width="56.6" height="56.6" fill="#00224e"/>
    <rect x="568.0" y="792.0" width="56.6" height="56.6" fill="#00224e"/>
    <rect x="624.0" y="792.0" width="56.6" height="56.6" fill="#112d58"/>
    <rect x="680.0" y="792.0" width="56.6" height="56.6" fill="#112d58"/>
    <rect x="736.0" y="792.0" width="56.6" height="56.6" fill="#112d58"/>
    <rect x="792.0" y="792.0" width="56.6" height="56.6" fill="#112d58"/>
    <g fill="none" stroke="#ffffff" stroke-opacity="0.32" stroke-width="7">
      <line x1="344.0" y1="803.0" x2="680.0" y2="803.0"/>
      <line x1="221.0" y1="680.0" x2="803.0" y2="680.0"/>
      <line x1="176.0" y1="512.0" x2="848.0" y2="512.0"/>
      <line x1="221.0" y1="344.0" x2="803.0" y2="344.0"/>
      <line x1="344.0" y1="221.0" x2="680.0" y2="221.0"/>
      <line x1="512" y1="176" x2="512" y2="848"/>
      <ellipse cx="512" cy="512" rx="168.0" ry="336"/>
      <ellipse cx="512" cy="512" rx="291.0" ry="336"/>
    </g>
    <circle cx="512" cy="512" r="336" fill="url(#shade)"/>
  </g>
  <circle cx="512" cy="512" r="336" fill="none" stroke="#e8ecf2" stroke-width="18"/>
</svg>
